<?xml version="1.0" standalone="no"?>
<!DOCTYPE svg PUBLIC "-//W3C//DTD SVG 20010904//EN"
 "http://www.w3.org/TR/2001/REC-SVG-20010904/DTD/svg10.dtd">
<svg version="1.0" xmlns="http://www.w3.org/2000/svg"
 width="512.000000pt" height="512.000000pt" viewBox="0 0 512.000000 512.000000"
 preserveAspectRatio="xMidYMid meet">
<metadata>
Created by potrace 1.11, written by Peter Selinger 2001-2013
</metadata>
<g transform="translate(0.000000,512.000000) scale(0.100000,-0.100000)"
fill="#000000" stroke="none">
<path d="M89 4221 l-29 -29 0 -1692 0 -1692 29 -29 29 -29 2442 0 2442 0 29
29 29 29 0 1692 0 1692 -29 29 -29 29 -2442 0 -2442 0 -29 -29z m4250 -74
c-31 -29 -442 -421 -914 -872 -472 -451 -861 -820 -865 -820 -4 0 -393 369
-865 820 -472 451 -883 843 -914 872 l-56 52 1835 0 1835 0 -56 -52z m-3204
-1032 c253 -241 486 -463 518 -495 l58 -57 -575 -511 -576 -512 0 1062 0 1062
58 -55 c31 -31 264 -253 517 -494z m3425 -515 l0 -1060 -576 512 -575 511 33
33 c63 63 1113 1064 1116 1064 1 0 2 -477 2 -1060z m-2389 -475 c210 -201 385
-365 389 -365 4 0 179 164 389 366 211 201 386 364 390 362 4 -2 280 -246 614
-543 l607 -539 0 -303 0 -303 -2000 0 -2000 0 0 303 0 303 608 541 c334 298
610 542 614 542 4 1 179 -163 389 -364z"/>
</g>
</svg>
